<svg width="16" height="16" viewBox="0 0 16 16" fill="none" xmlns="http://www.w3.org/2000/svg">
<path id="Vector" d="M16 1.33331V12.1663C16 12.3873 15.9064 12.5993 15.7397 12.7555C15.573 12.9118 15.3469 12.9996 15.1111 12.9996C14.8754 12.9996 14.6493 12.9118 14.4826 12.7555C14.3159 12.5993 14.2223 12.3873 14.2223 12.1663V3.3447L1.51823 15.2558C1.35144 15.4122 1.12523 15.5 0.889356 15.5C0.653484 15.5 0.427273 15.4122 0.260486 15.2558C0.0936996 15.0994 0 14.8874 0 14.6662C0 14.4451 0.0936996 14.233 0.260486 14.0767L12.9656 2.16662H3.55594C3.3202 2.16662 3.09411 2.07882 2.92742 1.92254C2.76073 1.76627 2.66708 1.55431 2.66708 1.33331C2.66708 1.1123 2.76073 0.900346 2.92742 0.74407C3.09411 0.587795 3.3202 0.5 3.55594 0.5H15.1111C15.3469 0.5 15.573 0.587795 15.7397 0.74407C15.9064 0.900346 16 1.1123 16 1.33331Z" fill="#E5E4E2"/>
</svg>
