<svg width="10" height="14" viewBox="0 0 10 14" fill="none" xmlns="http://www.w3.org/2000/svg">
<path id="Vector" d="M5 0C2.19635 0 0 1.63697 0 3.72644V10.1146C0 12.2041 2.19635 13.8411 5 13.8411C7.80365 13.8411 10 12.2041 10 10.1146V3.72644C10 1.63697 7.80365 0 5 0ZM9.16667 6.92053C9.16667 7.56068 8.75625 8.21347 8.04115 8.71188C7.23594 9.27284 6.15573 9.58227 5 9.58227C3.84427 9.58227 2.76406 9.27284 1.95885 8.71188C1.24375 8.21347 0.833333 7.56068 0.833333 6.92053V5.81324C1.72187 6.8114 3.24115 7.45288 5 7.45288C6.75885 7.45288 8.27812 6.80873 9.16667 5.81324V6.92053ZM1.95885 1.93509C2.76406 1.37412 3.84427 1.0647 5 1.0647C6.15573 1.0647 7.23594 1.37412 8.04115 1.93509C8.75625 2.4335 9.16667 3.08629 9.16667 3.72644C9.16667 4.36659 8.75625 5.01938 8.04115 5.51779C7.23594 6.07875 6.15573 6.38818 5 6.38818C3.84427 6.38818 2.76406 6.07875 1.95885 5.51779C1.24375 5.01938 0.833333 4.36659 0.833333 3.72644C0.833333 3.08629 1.24375 2.4335 1.95885 1.93509ZM8.04115 11.906C7.23594 12.4669 6.15573 12.7764 5 12.7764C3.84427 12.7764 2.76406 12.4669 1.95885 11.906C1.24375 11.4076 0.833333 10.7548 0.833333 10.1146V9.00733C1.72187 10.0055 3.24115 10.647 5 10.647C6.75885 10.647 8.27812 10.0028 9.16667 9.00733V10.1146C9.16667 10.7548 8.75625 11.4076 8.04115 11.906Z" fill="#8A9A5B"/>
</svg>
