<svg width="171" height="28" viewBox="0 0 171 28" fill="none" xmlns="http://www.w3.org/2000/svg">
<path d="M8.29688 5.89844C7.40625 5.94531 6.65625 6.28516 6.04688 6.91797C5.46094 7.55078 5.03906 8.27734 4.78125 9.09766C4.52344 9.89453 4.39453 10.7148 4.39453 11.5586C4.39453 12.4023 4.51172 13.2344 4.74609 14.0547C5.00391 14.875 5.4375 15.6016 6.04688 16.2344C6.65625 16.8438 7.40625 17.1719 8.29688 17.2188H19.8984C21.375 17.3594 22.1836 18.168 22.3242 19.6445C22.3008 20.3008 22.0547 20.8516 21.5859 21.2969C21.1172 21.7188 20.5547 21.9297 19.8984 21.9297H8.68359H7.06641C5.42578 21.8359 4.07812 21.2148 3.02344 20.0664C1.96875 18.8945 1.20703 17.5703 0.738281 16.0938C0.292969 14.6172 0.0703125 13.1055 0.0703125 11.5586C0.0703125 10.4102 0.199219 9.27344 0.457031 8.14844C0.714844 7.02344 1.11328 5.95703 1.65234 4.94922C2.21484 3.91797 2.95312 3.03906 3.86719 2.3125C4.80469 1.58594 5.87109 1.21094 7.06641 1.1875H7.73438H19.8984C21.375 1.32812 22.1836 2.13672 22.3242 3.61328C22.3242 4.26953 22.0781 4.82031 21.5859 5.26562C21.1172 5.6875 20.5547 5.89844 19.8984 5.89844H8.29688ZM27.9844 0.625C28.6172 0.648437 29.1562 0.882813 29.6016 1.32812C30.0469 1.75 30.2812 2.27734 30.3047 2.91016V5.96875H41.2031C42.8438 5.99219 44.1914 6.46094 45.2461 7.375C46.3242 8.26562 47.0859 9.27344 47.5312 10.3984C48 11.5469 48.2344 12.7305 48.2344 13.9492H48.2695V20.0664C48.2695 20.7227 48.0234 21.2734 47.5312 21.7188C47.0625 22.1406 46.5 22.3516 45.8438 22.3516C44.4375 22.2344 43.6641 21.4727 43.5234 20.0664V13.9141C43.5234 13.4688 43.4297 13 43.2422 12.5078C43.0781 12.0156 42.832 11.5938 42.5039 11.2422C42.1758 10.8672 41.7891 10.6797 41.3438 10.6797H30.3047V20.1367C30.1641 21.543 29.3906 22.3047 27.9844 22.4219C27.3281 22.4219 26.7539 22.2109 26.2617 21.7891C25.793 21.3438 25.5586 20.793 25.5586 20.1367V2.91016C25.582 2.25391 25.8281 1.71484 26.2969 1.29297C26.7656 0.847656 27.3281 0.625 27.9844 0.625ZM72.3516 20.0664V11.5938C72.3516 11.0078 72.0469 10.7031 71.4375 10.6797H59.1328C58.6875 10.7031 58.3008 10.9023 57.9727 11.2773C57.6445 11.6289 57.3984 12.0508 57.2344 12.543C57.0938 13.0117 57.0234 13.4922 57.0234 13.9844C57.0234 14.4531 57.0938 14.9336 57.2344 15.4258C57.3984 15.8945 57.6445 16.3164 57.9727 16.6914C58.3008 17.043 58.6875 17.2188 59.1328 17.2188H68.1328C68.7891 17.2188 69.3398 17.4531 69.7852 17.9219C70.2539 18.3672 70.4883 18.918 70.4883 19.5742C70.4883 20.2305 70.2539 20.7812 69.7852 21.2266C69.3398 21.6953 68.7891 21.9297 68.1328 21.9297H59.2734C57.6328 21.9062 56.2734 21.4492 55.1953 20.5586C54.1406 19.6445 53.3789 18.625 52.9102 17.5C52.4648 16.3516 52.2422 15.168 52.2422 13.9492C52.2422 12.7773 52.4766 11.6289 52.9453 10.5039C53.4141 9.35547 54.1758 8.33594 55.2305 7.44531C56.2852 6.53125 57.8438 6.03906 59.9062 5.96875H74.6719C75.3281 5.96875 75.8906 6.19141 76.3594 6.63672C76.8281 7.05859 77.0742 7.59766 77.0977 8.25391V20.0664C77.0977 20.7227 76.8516 21.2734 76.3594 21.7188C75.8906 22.1406 75.3281 22.3516 74.6719 22.3516C73.2656 22.2344 72.4922 21.4727 72.3516 20.0664ZM89.2617 0.625C89.918 0.625 90.4805 0.847656 90.9492 1.29297C91.418 1.71484 91.6641 2.25391 91.6875 2.91016V5.96875H103.641C104.297 5.96875 104.859 6.19141 105.328 6.63672C105.773 7.10547 105.996 7.66797 105.996 8.32422C105.996 8.98047 105.762 9.54297 105.293 10.0117C104.848 10.457 104.297 10.6797 103.641 10.6797H91.6875V11.3828C91.6641 12.3438 91.7227 13.2344 91.8633 14.0547C92.0273 14.8516 92.4023 15.5664 92.9883 16.1992C93.5742 16.832 94.3125 17.1719 95.2031 17.2188H103.781C104.438 17.2422 104.977 17.4883 105.398 17.957C105.844 18.4258 106.066 18.9883 106.066 19.6445C106.043 20.2773 105.809 20.8164 105.363 21.2617C104.941 21.6836 104.414 21.9062 103.781 21.9297H94.0078C92.3672 21.8359 91.0078 21.2852 89.9297 20.2773C88.875 19.2461 88.1133 17.9922 87.6445 16.5156C87.1992 15.0391 86.9648 13.4688 86.9414 11.8047V10.6797H82.8984C82.2422 10.6797 81.6914 10.4453 81.2461 9.97656C80.7773 9.53125 80.543 8.98047 80.543 8.32422C80.543 7.66797 80.7656 7.11719 81.2109 6.67188C81.6797 6.20312 82.2422 5.96875 82.8984 5.96875H86.9414V2.91016C86.9648 2.27734 87.1992 1.75 87.6445 1.32812C88.0898 0.882813 88.6289 0.648437 89.2617 0.625Z" fill="white"/>
<path d="M132.188 3.54297C132.188 4.19922 131.953 4.75 131.484 5.19531C131.039 5.66406 130.488 5.89844 129.832 5.89844H115.77C115.324 5.92188 114.949 6.02734 114.645 6.21484C114.363 6.37891 114.152 6.57812 114.012 6.8125C113.871 7.02344 113.801 7.24609 113.801 7.48047C113.801 7.71484 113.871 7.94922 114.012 8.18359C114.152 8.39453 114.363 8.59375 114.645 8.78125C114.949 8.94531 115.324 9.03906 115.77 9.0625H125.754C127.395 9.10938 128.742 9.49609 129.797 10.2227C130.875 10.9258 131.637 11.7461 132.082 12.6836C132.551 13.5977 132.785 14.5352 132.785 15.4961C132.785 16.4336 132.551 17.3711 132.082 18.3086C131.613 19.2227 130.852 20.043 129.797 20.7695C128.742 21.4727 127.395 21.8242 125.754 21.8242H125.543C125.402 21.8477 125.262 21.8594 125.121 21.8594H111.832C111.176 21.8594 110.613 21.6367 110.145 21.1914C109.699 20.7227 109.477 20.1602 109.477 19.5039C109.477 18.8477 109.711 18.2969 110.18 17.8516C110.625 17.3828 111.176 17.1484 111.832 17.1484H125.965C126.41 17.1719 126.773 17.0898 127.055 16.9023C127.359 16.7148 127.582 16.5039 127.723 16.2695C127.863 16.0117 127.934 15.7539 127.934 15.4961C127.934 15.332 127.863 15.1094 127.723 14.8281C127.582 14.5234 127.359 14.2773 127.055 14.0898C126.773 13.9023 126.41 13.7969 125.965 13.7734H115.98C114.34 13.7266 112.98 13.3516 111.902 12.6484C110.848 11.9453 110.086 11.1484 109.617 10.2578C109.172 9.34375 108.949 8.41797 108.949 7.48047C108.949 6.56641 109.184 5.66406 109.652 4.77344C110.121 3.85938 110.883 3.05078 111.938 2.34766C112.992 1.64453 114.34 1.26953 115.98 1.22266H116.191C116.332 1.19922 116.473 1.1875 116.613 1.1875H129.832C130.488 1.1875 131.039 1.42187 131.484 1.89062C131.953 2.33594 132.188 2.88672 132.188 3.54297ZM156.586 24.9883V11.5938C156.586 11.0078 156.281 10.7031 155.672 10.6797H143.367C142.922 10.7031 142.535 10.9023 142.207 11.2773C141.879 11.6289 141.633 12.0508 141.469 12.543C141.328 13.0117 141.258 13.4922 141.258 13.9844C141.258 14.4531 141.328 14.9336 141.469 15.4258C141.633 15.8945 141.879 16.3164 142.207 16.6914C142.535 17.043 142.922 17.2188 143.367 17.2188H152.367C153.023 17.2188 153.574 17.4531 154.02 17.9219C154.488 18.3672 154.723 18.918 154.723 19.5742C154.723 20.2305 154.488 20.7812 154.02 21.2266C153.574 21.6953 153.023 21.9297 152.367 21.9297H143.508C141.867 21.9062 140.508 21.4492 139.43 20.5586C138.375 19.6445 137.613 18.625 137.145 17.5C136.699 16.3516 136.477 15.168 136.477 13.9492C136.477 12.7773 136.711 11.6289 137.18 10.5039C137.648 9.35547 138.41 8.33594 139.465 7.44531C140.52 6.53125 142.078 6.03906 144.141 5.96875H158.906C159.562 5.96875 160.125 6.19141 160.594 6.63672C161.062 7.05859 161.309 7.59766 161.332 8.25391V24.9883C161.332 25.6445 161.086 26.1836 160.594 26.6055C160.125 27.0508 159.562 27.2734 158.906 27.2734C157.5 27.1562 156.727 26.3945 156.586 24.9883ZM168.363 0.625C168.996 0.648437 169.535 0.882813 169.98 1.32812C170.426 1.75 170.66 2.27734 170.684 2.91016V20.1367C170.543 21.543 169.77 22.3047 168.363 22.4219C167.707 22.4219 167.133 22.2109 166.641 21.7891C166.172 21.3438 165.938 20.793 165.938 20.1367V2.91016C165.961 2.25391 166.207 1.71484 166.676 1.29297C167.145 0.847656 167.707 0.625 168.363 0.625Z" fill="#8A9A5B"/>
</svg>
